<?xml version="1.0" encoding="UTF-8"?>
<svg width="24px" height="28px" viewBox="0 0 24 28" version="1.1" xmlns="http://www.w3.org/2000/svg" xmlns:xlink="http://www.w3.org/1999/xlink">
    <!-- Generator: Sketch 52.2 (67145) - http://www.bohemiancoding.com/sketch -->
    <title>if_00-ELASTOFONT-STORE-READY_bag_2703085</title>
    <desc>Created with Sketch.</desc>
    <g id="Page-1" stroke="none" stroke-width="1" fill="none" fill-rule="evenodd">
        <g id="No-Milk---Shop" transform="translate(-810.000000, -39.000000)" fill="#300C06" fill-rule="nonzero" stroke="#300C06" stroke-width="0.5">
            <g id="Header-1" transform="translate(0.000000, -33.000000)">
                <g id="Nav-Copy" transform="translate(40.000000, 68.000000)">
                    <g id="if_00-ELASTOFONT-STORE-READY_bag_2703085" transform="translate(770.000000, 5.000000)">
                        <path d="M22.5843563,6.70648562 C22.5566039,6.2741879 22.1990242,5.93795631 21.7656591,5.93795631 L17.4266707,5.93795631 L17.4266707,4.65600669 C17.4266707,2.08890534 14.9919271,0 11.9999998,0 C9.00807254,0 6.57332907,2.08890534 6.57332907,4.65600669 L6.57332907,5.93795631 L2.23434065,5.93795631 C1.80097549,5.93795631 1.44339592,6.2741879 1.4156435,6.70648562 L0.251108106,25.3614671 C0.237231896,25.5877564 0.317287046,25.8087085 0.472060241,25.9741558 C0.626833545,26.1385356 0.843516127,26.232467 1.06980526,26.232467 L22.9301944,26.232467 C23.1564837,26.232467 23.3731661,26.1385356 23.5279394,25.9741558 C23.6827128,25.8087085 23.7627679,25.5877564 23.7488916,25.3614671 L22.5843563,6.70648562 Z M8.21285826,4.65600669 C8.21285826,2.99299474 9.91216195,1.63952919 11.9999998,1.63952919 C14.0878377,1.63952919 15.7871415,2.99299474 15.7871415,4.65600669 L15.7871415,5.93795631 L8.21285826,5.93795631 L8.21285826,4.65600669 Z M6.57332907,7.5774855 L6.57332907,9.35791178 C6.57332907,9.81049015 6.94051529,10.1776764 7.39309366,10.1776764 C7.84567203,10.1776764 8.21285826,9.81049015 8.21285826,9.35791178 L8.21285826,7.5774855 L15.7871415,7.5774855 L15.7871415,9.35791178 C15.7871415,9.81049015 16.1543278,10.1776764 16.6069061,10.1776764 C17.0594845,10.1776764 17.4266707,9.81049015 17.4266707,9.35791178 L17.4266707,7.5774855 L20.994995,7.5774855 L21.7052841,18.9453148 L2.29471555,18.9453148 L3.00500473,7.5774855 L6.57332907,7.5774855 Z M1.94187258,24.5929378 L2.22646862,20.0383343 L21.7735312,20.0383343 L22.0581271,24.5929378 L1.94187258,24.5929378 Z" id="Shape"></path>
                    </g>
                </g>
            </g>
        </g>
    </g>
</svg>