<?xml version="1.0" encoding="UTF-8"?>
<svg width="12px" height="19px" viewBox="0 0 12 19" version="1.1" xmlns="http://www.w3.org/2000/svg" xmlns:xlink="http://www.w3.org/1999/xlink">
    <!-- Generator: Sketch 52.2 (67145) - http://www.bohemiancoding.com/sketch -->
    <title>if_chevron-up_1608627</title>
    <desc>Created with Sketch.</desc>
    <g id="Page-1" stroke="none" stroke-width="1" fill="none" fill-rule="evenodd">
        <g id="No-Milk---Homepage" transform="translate(-402.000000, -3337.000000)" fill="#EADFC0" fill-rule="nonzero">
            <g id="About-Us" transform="translate(0.000000, 2938.000000)">
                <g id="if_chevron-up_1608627" transform="translate(402.000000, 399.000000)">
                    <path d="M14.6594206,12.8052202 L12.7939826,14.6594206 C12.65164,14.8017632 12.4830763,14.8729346 12.2882916,14.8729346 C12.0935069,14.8729346 11.9249433,14.8017632 11.7826006,14.6594206 L5.81544665,8.69226664 L-0.151707304,14.6594206 C-0.294049959,14.8017632 -0.46261363,14.8729346 -0.657398317,14.8729346 C-0.852183003,14.8729346 -1.02074667,14.8017632 -1.16308933,14.6594206 L-3.02852729,12.8052202 C-3.17086994,12.6628776 -3.24204127,12.492441 -3.24204127,12.2939104 C-3.24204127,12.0953799 -3.17086994,11.9249433 -3.02852729,11.7826006 L5.30975564,3.45555526 C5.45209829,3.3132126 5.62066196,3.24204127 5.81544665,3.24204127 C6.01023134,3.24204127 6.17879501,3.3132126 6.32113766,3.45555526 L14.6594206,11.7826006 C14.8017632,11.9249433 14.8729346,12.0953799 14.8729346,12.2939104 C14.8729346,12.492441 14.8017632,12.6628776 14.6594206,12.8052202 Z" id="Shape" transform="translate(5.815447, 9.057488) rotate(90.000000) translate(-5.815447, -9.057488) "></path>
                </g>
            </g>
        </g>
    </g>
</svg>