<?xml version="1.0" encoding="UTF-8"?>
<svg width="75px" height="50px" viewBox="0 0 75 50" version="1.1" xmlns="http://www.w3.org/2000/svg" xmlns:xlink="http://www.w3.org/1999/xlink">
    <!-- Generator: Sketch 52.2 (67145) - http://www.bohemiancoding.com/sketch -->
    <title>if_Mastercard_345560</title>
    <desc>Created with Sketch.</desc>
    <g id="Page-1" stroke="none" stroke-width="1" fill="none" fill-rule="evenodd">
        <g id="No-Milk---Cart" transform="translate(-1033.000000, -2210.000000)">
            <g id="Payment" transform="translate(220.000000, 1902.000000)">
                <g id="if_Mastercard_345560" transform="translate(813.000000, 308.000000)">
                    <g id="Mastercard" fill="#34495E">
                        <path d="M70.3125,0.161240786 L4.6875,0.161240786 C2.109375,0.161240786 0,2.27579853 0,4.86025799 L0,44.8019042 C0,47.3863636 2.109375,49.5009214 4.6875,49.5009214 L70.3125,49.5009214 C72.890625,49.5009214 75,47.3863636 75,44.8019042 L75,4.86025799 C75,2.27579853 72.890625,0.161240786 70.3125,0.161240786 Z" id="Shape"></path>
                    </g>
                    <g id="Mastercard_1_" transform="translate(12.162162, 8.108108)" fill="#E74C3C">
                        <circle id="Oval" cx="16.2162162" cy="16.2162162" r="16.2162162"></circle>
                    </g>
                    <g id="Mastercard_2_" transform="translate(30.405405, 8.108108)" fill="#F1C40F">
                        <circle id="Oval" cx="16.2162162" cy="16.2162162" r="16.2162162"></circle>
                    </g>
                    <g id="Mastercard_3_" transform="translate(25.337838, 12.162162)" fill="#E74C3C">
                        <path d="M16.3682432,4.89864865 L2.88851351,4.89864865 C2.40709459,5.60810811 1.92567568,6.31756757 1.44425676,7.26351351 L17.8125,7.26351351 C17.3310811,6.31756757 16.8496622,5.60810811 16.3682432,4.89864865 Z M12.5168919,0.168918919 L6.98057432,0.168918919 C6.25844595,0.878378378 5.53631757,1.58783784 4.81418919,2.53378378 L14.9239865,2.53378378 C13.9611486,1.58783784 12.9983108,0.878378378 12.5168919,0.168918919 Z M18.7753378,9.62837838 L0.722128378,9.62837838 C0.481418919,10.3378378 0.240709459,11.2837838 0.240709459,11.9932432 L19.2567568,11.9932432 C19.0160473,11.2837838 19.0160473,10.3378378 18.7753378,9.62837838 Z M2.88851351,21.4527027 L16.3682432,21.4527027 C16.8496622,20.7432432 17.3310811,20.0337838 17.8125,19.0878378 L1.44425676,19.0878378 C1.92567568,20.0337838 2.40709459,20.7432432 2.88851351,21.4527027 Z M0.481418919,16.722973 L18.5346284,16.722973 C18.7753378,16.0135135 19.0160473,15.0675676 19.0160473,14.3581081 L0,14.3581081 C0.240709459,15.0675676 0.240709459,16.0135135 0.481418919,16.722973 Z M6.73986486,26.1824324 L12.2761824,26.1824324 C12.9983108,25.472973 13.7204392,24.7635135 14.4425676,23.8175676 L4.33277027,23.8175676 C5.29560811,24.7635135 6.25844595,25.472973 6.73986486,26.1824324 Z" id="Shape"></path>
                    </g>
                </g>
            </g>
        </g>
    </g>
</svg>