<?xml version="1.0" encoding="UTF-8"?>
<svg width="75px" height="50px" viewBox="0 0 75 50" version="1.1" xmlns="http://www.w3.org/2000/svg" xmlns:xlink="http://www.w3.org/1999/xlink">
    <!-- Generator: Sketch 52.2 (67145) - http://www.bohemiancoding.com/sketch -->
    <title>if_Visa_345551</title>
    <desc>Created with Sketch.</desc>
    <g id="Page-1" stroke="none" stroke-width="1" fill="none" fill-rule="evenodd">
        <g id="No-Milk---Cart" transform="translate(-1118.000000, -2210.000000)">
            <g id="Payment" transform="translate(220.000000, 1902.000000)">
                <g id="if_Visa_345551" transform="translate(898.000000, 308.000000)">
                    <g id="Visa" fill="#ECF0F1">
                        <path d="M70.3125,0.120038412 L4.6875,0.120038412 C2.109375,0.120038412 0,2.23751601 0,4.82554417 L0,44.8223431 C0,47.4103713 2.109375,49.5278489 4.6875,49.5278489 L70.3125,49.5278489 C72.890625,49.5278489 75,47.4103713 75,44.8223431 L75,4.82554417 C75,2.23751601 72.890625,0.120038412 70.3125,0.120038412 Z" id="Shape"></path>
                    </g>
                    <g id="Visa_1_" fill="#34495E">
                        <path d="M70.3125,0.105633803 L4.6875,0.105633803 C2.109375,0.105633803 0,2.1971831 0,4.75352113 L0,9.40140845 L75,9.40140845 L75,4.75352113 C75,2.1971831 72.890625,0.105633803 70.3125,0.105633803 Z" id="Shape"></path>
                    </g>
                    <g id="Visa_2_" transform="translate(0.000000, 40.140845)" fill="#F1C40F">
                        <path d="M0,0.105633803 L0,4.75352113 C0,7.30985915 2.109375,9.40140845 4.6875,9.40140845 L70.3125,9.40140845 C72.890625,9.40140845 75,7.30985915 75,4.75352113 L75,0.105633803 L0,0.105633803 Z" id="Shape"></path>
                    </g>
                    <g id="Visa_3_" transform="translate(11.619718, 14.788732)" fill="#34495E">
                        <path d="M31.7621639,7.74647887 C30.1152369,6.80751174 29.1741357,6.33802817 29.1741357,5.39906103 C29.1741357,4.69483568 30.1152369,3.75586854 31.7621639,3.75586854 C33.1738156,3.75586854 34.3501921,3.99061033 35.2912932,4.4600939 L35.7618438,4.69483568 L36.4676697,0.704225352 C35.5265685,0.234741784 34.1149168,0 32.4679898,0 C27.9977593,0 24.7039052,2.58215962 24.7039052,6.10328638 C24.7039052,8.68544601 27.0566581,10.0938967 28.7035851,11.0328638 C30.5857875,11.971831 31.056338,12.4413146 31.056338,13.3802817 C31.056338,14.5539906 29.6446863,15.258216 28.2330346,15.258216 C26.3508323,15.258216 25.4097311,15.0234742 23.9980794,14.3192488 L23.2922535,14.084507 L22.5864277,18.0751174 C23.7628041,18.5446009 25.6450064,19.0140845 27.762484,19.0140845 C32.4679898,19.0140845 35.7618438,16.6666667 35.7618438,12.9107981 C35.7618438,10.5633803 34.5854673,8.92018779 31.7621639,7.74647887 Z M47.9961588,0.469483568 L44.4670294,0.469483568 C43.290653,0.469483568 42.5848271,0.704225352 42.1142766,1.87793427 L35.2912932,18.5446009 L39.996799,18.5446009 C39.996799,18.5446009 40.7026248,16.1971831 40.9379001,15.7276995 C41.4084507,15.7276995 46.1139565,15.7276995 46.8197823,15.7276995 C47.0550576,16.4319249 47.2903329,18.5446009 47.2903329,18.5446009 L51.7605634,18.5446009 L47.9961588,0.469483568 Z M42.3495519,12.2065728 C42.8201024,11.2676056 44.2317542,7.04225352 44.2317542,7.04225352 C44.2317542,7.04225352 44.7023047,6.10328638 44.93758,5.39906103 L45.1728553,7.04225352 C45.1728553,7.04225352 46.1139565,11.2676056 46.1139565,12.2065728 L42.3495519,12.2065728 Z M15.2928937,18.5446009 L19.7631242,18.5446009 L22.5864277,0.469483568 L18.1161972,0.469483568 L15.2928937,18.5446009 Z M11.2932138,0.469483568 L6.82298335,12.9107981 L6.35243278,10.3286385 C5.41133163,7.51173709 2.82330346,4.22535211 0,2.58215962 L3.9996799,18.5446009 L8.94046095,18.5446009 L16.2339949,0.469483568 L11.2932138,0.469483568 Z" id="Shape"></path>
                    </g>
                    <g id="Visa_4_" transform="translate(7.394366, 15.845070)" fill="#F1C40F">
                        <path d="M9.29577465,1.62676056 C9.06338028,0.464788732 8.13380282,0.232394366 7.20422535,0 L0,0 L0,0.464788732 C5.57746479,1.85915493 9.52816901,5.57746479 10.9225352,9.99295775 L9.29577465,1.62676056 Z" id="Shape"></path>
                    </g>
                </g>
            </g>
        </g>
    </g>
</svg>